<svg width="468" height="177" viewBox="0 0 468 177" fill="none" xmlns="http://www.w3.org/2000/svg">
<g clip-path="url(#clip0_253_575)">
<path d="M163.839 45.2842H163.196V131.849H163.839V45.2842Z" fill="white"/>
<mask id="mask0_253_575" style="mask-type:luminance" maskUnits="userSpaceOnUse" x="45" y="42" width="87" height="93">
<path d="M88.4902 42.3756C58.4021 42.3756 46.6692 48.2802 46.1859 48.5423L45.8671 48.7068V49.0716C45.8671 49.3748 45.4507 79.8743 52.7722 96.9613C59.4561 112.512 68.7108 121.9 75.3485 127.039C82.5466 132.625 88.0789 134.496 88.3102 134.573L88.4953 134.635L88.6856 134.573C88.9169 134.496 94.4595 132.625 101.647 127.039C108.264 121.9 117.555 112.512 124.224 96.9613C131.55 79.8743 131.139 49.3748 131.134 49.0716V48.7068L130.81 48.5423C130.327 48.2905 118.599 42.3756 88.5005 42.3756H88.4902Z" fill="white"/>
</mask>
<g mask="url(#mask0_253_575)">
<path d="M95.9733 0.00135176L0.000976562 80.4913L81.0237 177.002L176.996 96.5121L95.9733 0.00135176Z" fill="#253134"/>
</g>
<mask id="mask1_253_575" style="mask-type:luminance" maskUnits="userSpaceOnUse" x="51" y="47" width="50" height="40">
<path d="M69.03 59.8581H74.7628L68.7729 66.6878L75.5803 76.7755H69.9246L65.5903 70.3416L63.5337 72.7055V76.7755H58.1351V59.8581H63.4977V66.0248L69.03 59.8581ZM51.4872 52.2474V52.5557C50.8968 64.0222 52.1377 75.5095 55.1634 86.5857H76.8811L85.4211 72.541L70.701 48.5731C58.3614 49.7139 52.608 51.8003 51.4872 52.2474ZM76.3052 48.1363L88.3158 67.8338L100.337 48.1465C96.7684 47.941 92.7786 47.8125 88.3158 47.8125C83.8529 47.8125 79.8683 47.9358 76.3052 48.1414" fill="white"/>
</mask>
<g mask="url(#mask1_253_575)">
<path d="M56.2937 31.8044L37.9966 82.0503L94.5002 102.606L112.797 52.3598L56.2937 31.8044Z" fill="url(#paint0_linear_253_575)"/>
</g>
<path d="M88.3157 43.3211C94.7079 43.2979 101.097 43.6049 107.458 44.241C111.795 44.6797 116.104 45.366 120.363 46.2966C126.131 47.5864 129.144 48.866 129.946 49.272C129.972 52.232 130.008 80.4242 123.119 96.4987C116.537 111.849 107.375 121.109 100.856 126.176C94.3364 131.243 89.2103 133.186 88.326 133.499C87.4365 133.186 82.3362 131.253 75.7962 126.176C69.2562 121.099 60.1146 111.849 53.5335 96.4987C46.6439 80.4242 46.6798 52.2372 46.7055 49.272C47.5076 48.8917 50.5205 47.5864 56.2893 46.2966C60.5483 45.366 64.8571 44.6797 69.1945 44.241C75.5515 43.6052 81.9372 43.2982 88.326 43.3211M88.326 42.2933C58.2328 42.2933 46.4999 48.198 46.0166 48.46L45.6927 48.6296V48.9894C45.6927 49.2977 45.2814 79.8229 52.6028 96.8841C59.2868 112.435 68.5415 121.823 75.1792 126.962C82.3773 132.548 87.9095 134.414 88.1409 134.491L88.3311 134.558L88.5214 134.491C88.7527 134.414 94.2953 132.548 101.483 126.962C108.1 121.823 117.391 112.435 124.059 96.8841C131.381 79.7972 130.975 49.2977 130.97 48.9894V48.6296L130.646 48.46C130.162 48.2134 118.429 42.2933 88.3363 42.2933" fill="#253134"/>
<mask id="mask2_253_575" style="mask-type:luminance" maskUnits="userSpaceOnUse" x="58" y="77" width="60" height="51">
<path d="M84.3205 108.945L79.3693 100.528L79.3333 100.476L85.318 100.512L88.3257 104.711V104.772L91.3798 100.507H97.3491L97.2257 100.672L92.3413 108.981L97.236 117.265L97.3234 117.394H91.3592L88.3052 113.128L85.2717 117.358H79.3076L84.3205 108.945ZM88.3257 77.3511L76.0941 97.2336H58.8804C61.0297 102.233 63.7931 106.946 67.1068 111.263C74.1661 119.953 81.503 124.506 85.4517 126.51H85.5031C87.282 127.414 88.3257 127.826 88.3257 127.826C88.3257 127.826 88.5366 127.754 88.9222 127.594C91.3758 126.471 93.7453 125.173 96.0123 123.709C100.126 120.955 103.884 117.703 107.2 114.028C111.551 109.012 115.093 103.349 117.699 97.2439H100.491L88.3155 77.3459L88.3257 77.3511Z" fill="white"/>
</mask>
<g mask="url(#mask2_253_575)">
<path d="M93.3923 48.4266L34.0098 98.2295L83.18 156.799L142.563 106.996L93.3923 48.4266Z" fill="url(#paint1_linear_253_575)"/>
</g>
<mask id="mask3_253_575" style="mask-type:luminance" maskUnits="userSpaceOnUse" x="42" y="38" width="47" height="101">
<path d="M42.9471 45.5926L42.6283 45.7725L42.0319 46.1116V46.7951V47.16C42.0319 47.4889 41.2298 79.9206 49.0809 98.3077C56.243 115.076 66.3255 125.117 73.5236 130.59C81.3901 136.572 87.5342 138.535 87.7912 138.617L87.9866 138.679L88.3465 138.792V134.553L88.1563 134.486C87.9249 134.409 82.3875 132.543 75.1946 126.957C68.5774 121.818 59.2919 112.429 52.6234 96.8791C45.2453 79.7921 45.6772 49.2926 45.6823 48.9843V48.6246L46.0011 48.4601C46.4844 48.2083 58.2173 42.2934 88.3105 42.2934V38.3364C56.1556 38.3364 43.4664 45.2945 42.9419 45.5926" fill="white"/>
</mask>
<g mask="url(#mask3_253_575)">
<path d="M42.6192 30.2844L24.0112 135.763L86.8985 146.846L105.507 41.3676L42.6192 30.2844Z" fill="url(#paint2_linear_253_575)"/>
</g>
<path d="M91.3081 108.986L97.3442 117.414L97.2723 117.286L91.3235 108.986L97.2671 100.692L97.3339 100.579L91.3081 108.986Z" fill="#535151"/>
<path d="M80.2535 116.14L80.2843 116.088L85.3487 108.986L79.5645 100.913L79.2869 100.528H83.8062L78.9424 100.281L84.3101 109.017L78.9475 117.681L83.8114 117.44H79.328L80.2535 116.14ZM84.2895 109.022L84.1867 109.197L84.2844 109.017L84.2895 109.022Z" fill="#ECF0F3"/>
<path d="M97.7501 100.281L92.8863 100.528H97.3645L96.439 101.823L96.3825 101.92L91.3232 108.986L96.3208 115.96L96.4082 116.119L97.3337 117.409H92.8554L97.7193 117.651L92.3824 108.997L97.7501 100.281Z" fill="#95999C"/>
<path d="M59.8267 59.8582L63.8833 59.5447L63.4977 66.0146V59.8582H59.8267Z" fill="#ECF0F3"/>
<path d="M63.4976 76.7755L63.8523 72.8956L65.1685 70.799L63.4976 72.7055V76.7755Z" fill="#ECF0F3"/>
<path d="M72.2379 62.736L69.2558 66.7135L72.6646 72.4742L68.7622 66.7135L72.2379 62.736Z" fill="#ECF0F3"/>
<path d="M75.179 126.998L74.8911 126.772L75.1739 126.993" fill="#8E8E8F"/>
<path d="M74.8913 126.772L74.7422 126.654L74.8964 126.777" fill="#8E8E8F"/>
<mask id="mask4_253_575" style="mask-type:luminance" maskUnits="userSpaceOnUse" x="63" y="38" width="72" height="101">
<path d="M99.6115 73.3942C100.317 73.2981 100.987 73.0298 101.564 72.613C102.14 72.1962 102.605 71.6438 102.917 71.0046C102.931 70.9834 102.943 70.9611 102.953 70.9378C103.301 70.1261 103.476 69.2511 103.468 68.3683V59.6116H118.378V76.7756H112.974V63.9283H108.907V68.3889C108.645 77.0171 101.863 77.0891 101.863 77.0891L99.6115 73.3942ZM91.1743 72.5411L99.7452 86.5858H121.463C124.488 75.5096 125.729 64.0223 125.139 52.5558V52.2475C124.013 51.7953 118.239 49.678 105.848 48.568L91.1743 72.5411ZM88.3156 41.2502C69.7754 42.0724 63.3999 43.943 63.3999 43.943C71.6796 42.7874 80.0329 42.2395 88.3927 42.3037C118.435 42.3037 130.142 48.2083 130.63 48.4704L130.949 48.6348V48.9946C130.949 49.3029 131.365 79.8281 124.039 96.8893C117.355 112.44 108.1 121.829 101.468 126.967C94.2695 132.553 88.7372 134.419 88.5007 134.496L88.3105 134.563L88.1408 134.506C87.9043 134.429 82.3669 132.569 75.1739 127.014L74.8912 126.793C74.987 126.875 75.078 126.962 75.1637 127.055C79.4877 131.813 87.9146 135.514 88.1408 135.591L88.3105 135.647V138.792L88.6755 138.679L88.8709 138.617C89.128 138.535 95.2721 136.562 103.133 130.59C110.332 125.117 120.419 115.076 127.576 98.3128C135.432 79.9155 134.635 47.4889 134.625 47.16V46.7951V46.1116L134.029 45.7725L133.71 45.5926C133.196 45.2945 120.496 38.3364 88.3362 38.3364L88.3156 41.2502Z" fill="white"/>
</mask>
<g mask="url(#mask4_253_575)">
<path d="M135.437 38.3364H63.3999V138.792H135.437V38.3364Z" fill="url(#paint3_linear_253_575)"/>
</g>
<path d="M124.759 96.8944C132.512 76.8526 130.928 48.9431 130.903 48.6399V48.9996C130.903 49.308 131.314 79.8332 123.993 96.8944C117.309 112.445 108.054 121.834 101.416 126.973C98.895 128.943 96.2158 130.703 93.4058 132.235C96.2867 130.708 99.038 128.948 101.632 126.973C108.414 121.834 118.635 112.738 124.769 96.8944" fill="#ECF0F3"/>
<path d="M111.74 59.6012L118.769 59.2261V77.1506L115.154 76.7652H118.398V59.6012H111.74Z" fill="#ECF0F3"/>
<path d="M76.8653 86.6063L84.0172 72.541L70.7007 48.645L85.4002 72.541L76.8653 86.6063Z" fill="#ECF0F3"/>
<path d="M88.3414 67.8955V65.5265L76.3257 48.1929L88.3414 67.8955Z" fill="#95999C"/>
<path d="M88.3412 77.3306V79.6996L76.2124 97.0178L88.3412 77.3306Z" fill="#95999C"/>
<path d="M88.3413 77.3306V79.6996L100.357 97.0178L88.3413 77.3306Z" fill="#ECF0F3"/>
<path d="M99.7658 86.6063L92.5471 72.5411L105.828 48.6245L91.1641 72.5411L99.7658 86.6063Z" fill="#95999C"/>
<path d="M88.3359 67.8955V65.5264L100.352 48.2083L88.3359 67.8955Z" fill="#ECF0F3"/>
<path d="M419.125 94.5819H413.022L405.731 101.951V94.5819H400.569V114.886H405.731V106.494L413.145 114.886H419.372L409.788 103.996L419.125 94.5819Z" fill="white"/>
<path d="M255.348 100.065H247.892V91.0618H255.348C259.116 91.0618 260.839 92.8604 260.839 95.5635C260.839 98.2666 259.116 100.065 255.348 100.065ZM255.533 86.2312H242.489V114.886H247.892V104.896H255.533C262.006 104.896 266.268 101.581 266.268 95.5635C266.268 89.5458 261.985 86.2312 255.533 86.2312Z" fill="white"/>
<path d="M278.448 110.631C277.28 110.636 276.136 110.294 275.162 109.649C274.187 109.003 273.427 108.083 272.976 107.006C272.526 105.928 272.406 104.741 272.631 103.594C272.856 102.448 273.417 101.394 274.242 100.567C275.067 99.7396 276.119 99.1756 277.265 98.9465C278.411 98.7173 279.599 98.8334 280.679 99.2799C281.759 99.7265 282.682 100.483 283.331 101.455C283.98 102.426 284.326 103.568 284.325 104.736C284.351 105.514 284.217 106.289 283.932 107.013C283.647 107.738 283.216 108.396 282.667 108.948C282.119 109.5 281.462 109.934 280.74 110.224C280.017 110.513 279.242 110.652 278.464 110.631M278.464 94.0063C272.896 94.0063 267.363 97.6036 267.363 104.736C267.363 111.869 272.896 115.461 278.464 115.461C284.032 115.461 289.564 111.864 289.564 104.736C289.564 97.6087 284.037 94.0063 278.464 94.0063Z" fill="white"/>
<path d="M302.727 110.631C299.642 110.631 297.318 108.38 297.318 104.736C297.318 101.093 299.693 98.8369 302.727 98.8369C304.567 98.8369 306.166 99.7003 307.436 101.622L311.863 99.0836C310.387 95.9334 307.189 94.0063 302.768 94.0063C296.994 94.0063 292.079 98.2665 292.079 104.736C292.079 111.206 296.747 115.461 302.768 115.461C307.107 115.461 310.017 113.493 312.064 110.014L307.806 107.681C306.578 109.403 305.267 110.631 302.727 110.631Z" fill="white"/>
<path d="M357.679 106.088C357.432 109.197 356.815 109.891 355.751 109.891C355.229 109.899 354.709 109.828 354.208 109.68V114.937C354.807 115.083 355.423 115.149 356.039 115.132C360.425 115.132 362.06 112.306 362.471 106.288L362.985 99.2069H368.8V114.845H373.942V94.5819H358.517L357.679 106.088Z" fill="white"/>
<path d="M337.385 102.033C337.738 100.85 338.463 99.8115 339.451 99.0712C340.44 98.3309 341.641 97.9281 342.876 97.9222C345.745 97.9222 347.668 99.4639 348.157 102.033H337.385ZM343.041 94.0063C337.139 94.0063 332.347 98.3076 332.347 104.731C332.347 111.155 337.139 115.461 342.794 115.461C347.257 115.461 350.085 113.781 352.131 110.322L348.018 108.267C346.748 109.86 345.601 111.047 342.876 111.047C339.843 111.047 337.632 109.084 337.303 105.975H352.954V104.171C352.954 98.2357 348.841 94.0166 343.041 94.0166" fill="white"/>
<path d="M381.865 102.033C382.218 100.85 382.942 99.8115 383.931 99.0712C384.92 98.3309 386.12 97.9281 387.356 97.9222C390.225 97.9222 392.148 99.4639 392.641 102.033H381.865ZM387.52 94.0063C381.623 94.0063 376.831 98.3076 376.831 104.731C376.831 111.155 381.623 115.461 387.273 115.461C391.736 115.461 394.564 113.781 396.61 110.322L392.497 108.267C391.227 109.86 390.081 111.047 387.356 111.047C384.322 111.047 382.111 109.084 381.782 105.975H397.438V104.171C397.438 98.2357 393.325 94.0166 387.525 94.0166" fill="white"/>
<path d="M313.673 99.0836H319.735V114.886H324.892V99.0836H330.959V94.5819H313.673V99.0836Z" fill="white"/>
<path d="M429.619 110.631C428.449 110.638 427.305 110.298 426.329 109.654C425.354 109.01 424.591 108.09 424.139 107.013C423.687 105.935 423.565 104.748 423.79 103.601C424.014 102.454 424.573 101.399 425.398 100.571C426.222 99.7423 427.275 99.1773 428.421 98.9473C429.567 98.7173 430.756 98.8328 431.836 99.279C432.917 99.7252 433.841 100.482 434.49 101.454C435.14 102.425 435.486 103.568 435.485 104.736C435.51 105.514 435.377 106.288 435.092 107.012C434.807 107.736 434.377 108.394 433.829 108.946C433.281 109.498 432.625 109.932 431.903 110.222C431.181 110.512 430.407 110.651 429.629 110.631M429.629 94.0063C424.055 94.0063 418.528 97.6036 418.528 104.736C418.528 111.869 424.055 115.461 429.629 115.461C435.202 115.461 440.729 111.864 440.729 104.736C440.729 97.6087 435.197 94.0063 429.629 94.0063Z" fill="white"/>
<path d="M461.254 94.5768L455.655 108.796L450.051 94.5768H443.305V114.845H448.21V102.013L453.65 114.845H457.655L463.095 102.013V114.845H468V94.5768H461.254Z" fill="white"/>
<path d="M195.721 123.303L195.845 123.355L195.984 123.391C196.483 123.548 197.003 123.63 197.526 123.632H224.935L206.94 105.615C203.619 108.92 201.418 111.098 199.804 112.712C198.364 114.146 197.382 115.133 196.472 116.052L194.554 117.964C193.972 118.6 193.649 119.43 193.649 120.292C193.651 120.94 193.848 121.573 194.215 122.107C194.582 122.642 195.101 123.053 195.706 123.288" fill="#FF4F12"/>
<path d="M193.835 120.307C193.834 119.446 194.157 118.615 194.74 117.979L196.657 116.068C197.568 115.148 198.55 114.161 199.984 112.728L207.126 105.631L210.365 102.414L210.432 102.347C215.815 96.9973 223.476 89.3814 234.71 78.1939L210.031 53.5271L196.051 67.5153C191.876 71.6881 192.452 74.422 192.452 80.0337V118.401C192.451 119.476 192.779 120.526 193.394 121.409C194.008 122.292 194.878 122.966 195.886 123.339C195.282 123.105 194.762 122.693 194.395 122.159C194.028 121.624 193.831 120.992 193.83 120.343" fill="white"/>
</g>
<defs>
<linearGradient id="paint0_linear_253_575" x1="83.6657" y1="42.0609" x2="66.0505" y2="90.4825" gradientUnits="userSpaceOnUse">
<stop stop-color="#ECF0F3"/>
<stop offset="0.19" stop-color="#D5D9DC"/>
<stop offset="0.77" stop-color="#95999C"/>
<stop offset="1" stop-color="#95999C"/>
</linearGradient>
<linearGradient id="paint1_linear_253_575" x1="108.655" y1="86.5533" x2="72.0992" y2="117.243" gradientUnits="userSpaceOnUse">
<stop stop-color="#ECF0F3"/>
<stop offset="0.02" stop-color="#ECF0F3"/>
<stop offset="0.23" stop-color="#D5D9DC"/>
<stop offset="0.87" stop-color="#95999C"/>
<stop offset="1" stop-color="#95999C"/>
</linearGradient>
<linearGradient id="paint2_linear_253_575" x1="35.5473" y1="83.14" x2="96.2587" y2="93.8505" gradientUnits="userSpaceOnUse">
<stop stop-color="#D3D5D7"/>
<stop offset="0.24" stop-color="#D3D5D7"/>
<stop offset="1" stop-color="#95999C"/>
</linearGradient>
<linearGradient id="paint3_linear_253_575" x1="63.3353" y1="88.1086" x2="134.555" y2="88.1086" gradientUnits="userSpaceOnUse">
<stop stop-color="#E0E0E2"/>
<stop offset="0.45" stop-color="#E0E0E2"/>
<stop offset="0.53" stop-color="#D3D4D6"/>
<stop offset="0.94" stop-color="#95999C"/>
<stop offset="1" stop-color="#95999C"/>
</linearGradient>
<clipPath id="clip0_253_575">
<rect width="468" height="177" fill="white"/>
</clipPath>
</defs>
</svg>
