<svg width="439" height="111" viewBox="0 0 439 111" fill="none" xmlns="http://www.w3.org/2000/svg">
<path d="M360.847 65.002H351.132L339.528 76.6696V65.002H331.311V97.1489H339.528V83.8622L351.329 97.1489H361.239L345.985 79.9079L360.847 65.002Z" fill="white"/>
<path d="M100.157 73.6825H88.2907V59.4275H100.157C106.156 59.4275 108.898 62.2753 108.898 66.555C108.898 70.8348 106.156 73.6825 100.157 73.6825ZM100.452 51.7793H79.6895V97.148H88.2907V81.3308H100.452C110.756 81.3308 117.54 76.0828 117.54 66.555C117.54 57.0273 110.723 51.7793 100.452 51.7793Z" fill="white"/>
<path d="M136.927 90.4131C135.067 90.4212 133.246 89.88 131.696 88.8582C130.145 87.8364 128.934 86.3799 128.217 84.6734C127.5 82.9669 127.309 81.0871 127.667 79.2723C128.026 77.4575 128.918 75.7894 130.231 74.4793C131.544 73.1693 133.219 72.2763 135.043 71.9135C136.867 71.5507 138.759 71.7344 140.478 72.4414C142.197 73.1484 143.666 74.3469 144.699 75.8849C145.732 77.4229 146.283 79.2312 146.281 81.0806C146.322 82.3123 146.109 83.5392 145.655 84.6859C145.201 85.8327 144.517 86.8751 143.643 87.7491C142.769 88.6231 141.725 89.3103 140.574 89.7684C139.423 90.2266 138.191 90.4459 136.952 90.4131M136.952 64.0918C128.089 64.0918 119.283 69.7873 119.283 81.0806C119.283 92.374 128.089 98.0613 136.952 98.0613C145.815 98.0613 154.621 92.3659 154.621 81.0806C154.621 69.7954 145.823 64.0918 136.952 64.0918Z" fill="white"/>
<path d="M175.572 90.4131C170.662 90.4131 166.962 86.8494 166.962 81.0806C166.962 75.3119 170.743 71.74 175.572 71.74C178.502 71.74 181.047 73.107 183.068 76.15L190.115 72.1306C187.766 67.143 182.675 64.0918 175.637 64.0918C166.447 64.0918 158.623 70.8369 158.623 81.0806C158.623 91.3244 166.054 98.0613 175.637 98.0613C182.545 98.0613 187.177 94.9451 190.434 89.4367L183.658 85.7428C181.702 88.4685 179.615 90.4131 175.572 90.4131Z" fill="white"/>
<path d="M263.041 83.2194C262.648 88.1419 261.666 89.2403 259.972 89.2403C259.141 89.2537 258.313 89.1412 257.517 88.9067V97.2303C258.47 97.4618 259.449 97.5658 260.43 97.5395C267.411 97.5395 270.013 93.0645 270.668 83.5367L271.487 72.3247H280.742V97.0838H288.926V65.002H264.375L263.041 83.2194Z" fill="white"/>
<path d="M230.74 76.8009C231.302 74.9273 232.455 73.283 234.029 72.1109C235.603 70.9388 237.514 70.301 239.48 70.2918C244.047 70.2918 247.108 72.7327 247.885 76.8009H230.74ZM239.742 64.0918C230.347 64.0918 222.72 70.902 222.72 81.0725C222.72 91.243 230.347 98.0613 239.349 98.0613C246.453 98.0613 250.954 95.4007 254.211 89.9249L247.664 86.6704C245.643 89.1926 243.818 91.0722 239.48 91.0722C234.652 91.0722 231.133 87.9641 230.609 83.0415H255.521V80.1856C255.521 70.7881 248.974 64.1081 239.742 64.1081" fill="white"/>
<path d="M301.538 76.8009C302.1 74.9273 303.253 73.283 304.827 72.1109C306.401 70.9388 308.312 70.301 310.279 70.2918C314.845 70.2918 317.906 72.7327 318.692 76.8009H301.538ZM310.541 64.0918C301.154 64.0918 293.526 70.902 293.526 81.0725C293.526 91.243 301.154 98.0613 310.148 98.0613C317.251 98.0613 321.753 95.4007 325.01 89.9249L318.463 86.6704C316.441 89.1926 314.616 91.0722 310.279 91.0722C305.45 91.0722 301.931 87.9641 301.407 83.0415H326.327V80.1856C326.327 70.7881 319.78 64.1081 310.549 64.1081" fill="white"/>
<path d="M192.996 72.1295H202.644V97.1489H210.853V72.1295H220.51V65.002H192.996V72.1295Z" fill="white"/>
<path d="M377.551 90.4131C375.69 90.4244 373.867 89.886 372.315 88.8661C370.762 87.8463 369.549 86.391 368.829 84.6848C368.109 82.9785 367.916 81.0983 368.272 79.2824C368.629 77.4666 369.52 75.7969 370.833 74.4852C372.145 73.1735 373.82 72.2789 375.644 71.9148C377.469 71.5506 379.361 71.7334 381.081 72.4399C382.801 73.1464 384.271 74.3449 385.305 75.8832C386.339 77.4215 386.89 79.2305 386.888 81.0806C386.929 82.3116 386.716 83.5378 386.263 84.684C385.81 85.8301 385.126 86.8722 384.253 87.7461C383.38 88.62 382.336 89.3073 381.187 89.766C380.037 90.2246 378.805 90.4448 377.567 90.4131M377.567 64.0918C368.696 64.0918 359.898 69.7873 359.898 81.0806C359.898 92.374 368.696 98.0613 377.567 98.0613C386.438 98.0613 395.236 92.3659 395.236 81.0806C395.236 69.7954 386.43 64.0918 377.567 64.0918Z" fill="white"/>
<path d="M427.906 64.9922L418.994 87.5057L410.074 64.9922H399.336V97.0822H407.144V76.7656L415.802 97.0822H422.178L430.836 76.7656V97.0822H438.644V64.9922H427.906Z" fill="white"/>
<path d="M5.24928 110.476L5.44569 110.558L5.66664 110.615C6.461 110.864 7.28872 110.993 8.12181 110.997H51.7501L23.1065 82.4707C17.8197 87.7024 14.317 91.1523 11.7473 93.7071C9.45578 95.9772 7.89267 97.5393 6.44412 98.9958L3.39152 102.023C2.46434 103.029 1.95039 104.344 1.95117 105.708C1.95359 106.735 2.26727 107.736 2.85128 108.583C3.43529 109.429 4.26248 110.08 5.22473 110.452" fill="#FF4F12"/>
<path d="M2.24432 105.733C2.24354 104.368 2.75751 103.053 3.68469 102.047L6.73727 99.0202C8.18582 97.5638 9.74894 96.0016 12.0322 93.7315L23.3997 82.4951L28.5555 77.4017L28.6619 77.296C37.2305 68.826 49.4245 56.7678 67.3063 39.0548L28.0236 0L5.77157 22.1473C-0.873745 28.7541 0.0428503 33.0827 0.0428503 41.9676V102.714C0.0413873 104.417 0.564565 106.079 1.54197 107.477C2.51936 108.875 3.90406 109.941 5.50968 110.533C4.54743 110.162 3.72027 109.51 3.13626 108.664C2.55225 107.818 2.23854 106.816 2.23613 105.79" fill="white"/>
</svg>
