<?xml version="1.0" encoding="utf-8" ?>
<svg xmlns="http://www.w3.org/2000/svg">
    <symbol xmlns="http://www.w3.org/2000/svg" id="hand" viewBox="0 0 177 210" fill="none">
        <path d="M46.5207 0C55.0806 0 62.865 2.11733 69.8742 6.35198C76.9453 10.5244 82.5588 16.1602 86.7147 23.2595C90.8705 30.2965 92.9484 38.1119 92.9484 46.7058C92.9484 47.2662 92.9484 47.7644 92.9484 48.2003C92.9484 48.6363 92.9174 49.041 92.8554 49.4147C92.7313 51.0338 92.018 52.3416 90.7154 53.338C89.4749 54.2721 88.1413 54.7391 86.7147 54.7391C85.226 54.7391 83.8614 54.2721 82.6208 53.338C81.4423 52.3416 80.822 50.7847 80.76 48.6674C80.76 48.2315 80.76 47.8578 80.76 47.5465C80.76 47.2351 80.76 46.9548 80.76 46.7058C80.76 40.3538 79.2093 34.5934 76.1079 29.4246C73.0686 24.1936 68.9437 20.0212 63.7334 16.9075C58.5851 13.7938 52.8476 12.2369 46.5207 12.2369C40.1939 12.2369 34.4253 13.7938 29.215 16.9075C24.0047 20.0212 19.8489 24.1936 16.7475 29.4246C13.7081 34.5934 12.1884 40.3538 12.1884 46.7058C12.1884 50.8781 12.8707 54.8637 14.2353 58.6624C15.662 62.3989 17.6159 65.7617 20.097 68.7509C21.3995 70.3077 21.9268 71.8646 21.6787 73.4214C21.4926 74.9783 20.8103 76.2861 19.6318 77.3447C18.4532 78.3411 17.0886 78.8393 15.5379 78.8393C14.6695 78.8393 13.7701 78.6214 12.8397 78.1854C11.9713 77.7495 11.134 77.0645 10.3276 76.1304C7.10217 72.0825 4.55903 67.5677 2.6982 62.5857C0.899401 57.5415 0 52.2482 0 46.7058C0 40.2292 1.20954 34.1886 3.62862 28.5839C6.0477 22.917 9.36618 17.9661 13.5841 13.7315C17.864 9.43456 22.8262 6.07175 28.4707 3.64305C34.1152 1.21435 40.1319 0 46.5207 0ZM133.608 205.225C118.163 210.892 103.555 211.515 89.785 207.093C76.0769 202.734 63.3302 193.393 51.545 179.07L20.3761 141.238C19.3216 139.868 18.3602 138.436 17.4918 136.941C16.6234 135.384 15.9721 133.921 15.5379 132.551C13.7391 127.756 13.9562 123.459 16.1892 119.66C18.4842 115.861 21.7407 113.184 25.9586 111.627C29.122 110.506 32.2544 110.412 35.3558 111.347C38.4571 112.218 41.3724 114.087 44.1017 116.951L54.9875 128.908C55.2977 129.219 55.6078 129.313 55.9179 129.188C56.3521 129.064 56.4762 128.721 56.2901 128.161L29.7733 54.926C27.7884 49.3835 27.8194 44.3393 29.8663 39.7933C31.9753 35.185 35.6659 31.9156 40.9383 29.9851C46.0865 28.1169 50.9247 28.2725 55.4527 30.4522C59.9807 32.5695 63.2372 36.4305 65.2221 42.0352L75.8288 71.1796C77.6276 69.8718 79.5815 68.8131 81.6904 68.0036C85.4741 66.6335 89.1027 66.4779 92.5763 67.5365C96.1118 68.5329 99.0582 70.588 101.415 73.7017C103.71 71.8957 106.129 70.5257 108.672 69.5916C112.27 68.2838 115.682 68.097 118.907 69.0311C122.132 69.9029 124.831 71.7712 127.002 74.6358C135.189 71.7712 142.571 72.3628 149.145 76.4106C155.72 80.3962 160.838 87.4332 164.497 97.5216L171.382 116.671C176.345 130.371 178.019 143.106 176.407 154.876C174.856 166.584 170.421 176.797 163.102 185.515C155.782 194.171 145.951 200.741 133.608 205.225ZM129.607 192.988C139.965 189.252 148.06 183.865 153.891 176.828C159.783 169.791 163.226 161.415 164.218 151.7C165.273 141.985 163.66 131.243 159.38 119.473L153.518 103.5C151.037 96.5252 148.029 91.5121 144.493 88.4607C140.958 85.347 137.267 84.5063 133.421 85.9386L137.05 96.027C137.608 97.6462 137.515 99.1719 136.771 100.604C136.027 101.974 134.941 102.908 133.515 103.407C132.026 103.967 130.537 103.967 129.049 103.407C127.56 102.784 126.505 101.663 125.885 100.044L120.954 86.4056C120.148 84.1015 118.876 82.5135 117.139 81.6417C115.402 80.7075 113.449 80.6453 111.278 81.4548C109.417 82.1398 107.835 83.1674 106.532 84.5374L112.487 101.165C113.107 102.784 113.045 104.31 112.301 105.742C111.557 107.112 110.471 108.046 109.045 108.544C107.556 109.105 106.036 109.105 104.486 108.544C102.997 107.921 101.973 106.832 101.415 105.275L93.9719 84.8176C93.1655 82.5135 91.894 80.9255 90.1572 80.0537C88.4204 79.1195 86.4666 79.0573 84.2956 79.8668C82.4968 80.5519 80.9151 81.5794 79.5505 82.9494L88.0172 106.396C88.5755 107.89 88.4825 109.354 87.7381 110.786C87.0558 112.218 85.9703 113.215 84.4817 113.775C82.931 114.336 81.4113 114.305 79.9226 113.682C78.434 113.059 77.4105 111.969 76.8523 110.412L53.3128 45.4914C52.6305 43.6232 51.514 42.3154 49.9633 41.5681C48.4746 40.7586 46.8309 40.6651 45.0321 41.2879C43.2333 41.9729 41.9617 43.125 41.2174 44.7441C40.473 46.301 40.442 48.0135 41.1243 49.8817L74.1541 140.865C74.8364 142.92 74.8364 144.819 74.1541 146.563C73.4718 148.244 72.2312 149.427 70.4324 150.112C68.8197 150.673 67.207 150.797 65.5942 150.486C63.9815 150.112 62.3068 148.991 60.57 147.123L38.9844 124.798C36.5033 122.12 33.9291 121.248 31.2619 122.182C29.5252 122.867 28.3156 123.957 27.6333 125.452C27.013 126.946 26.982 128.441 27.5403 129.935C28.0365 131.243 28.7498 132.489 29.6802 133.672L60.8491 171.317C71.6419 184.394 82.7449 192.397 94.158 195.323C105.571 198.25 117.387 197.472 129.607 192.988Z" fill="white"/>
    </symbol>

    <symbol xmlns="http://www.w3.org/2000/svg" id="delete" viewBox="0 0 85 73" fill="none">
        <path d="M72.5625 72.8125L38.6562 72.7734C37.1198 72.7734 35.6615 72.6042 34.2812 72.2656C32.9271 71.9531 31.625 71.4453 30.375 70.7422C29.151 70.0391 28.0052 69.1276 26.9375 68.0078L3.89062 44.2188C2.61458 42.8906 1.67708 41.6276 1.07812 40.4297C0.479167 39.2057 0.179688 37.9948 0.179688 36.7969C0.179688 35.9635 0.309896 35.1562 0.570312 34.375C0.830729 33.5677 1.23438 32.7474 1.78125 31.9141C2.32812 31.0807 3.03125 30.2344 3.89062 29.375L26.8984 5.46875C27.9661 4.34896 29.112 3.45052 30.3359 2.77344C31.5859 2.09635 32.888 1.61458 34.2422 1.32812C35.6224 1.04167 37.0807 0.898438 38.6172 0.898438H72.5625C76.651 0.898438 79.7109 1.91406 81.7422 3.94531C83.7995 5.95052 84.8281 8.97135 84.8281 13.0078V60.7031C84.8281 64.7396 83.7995 67.7604 81.7422 69.7656C79.7109 71.7969 76.651 72.8125 72.5625 72.8125ZM72.4844 66.5234C74.4375 66.5234 75.9349 66.0156 76.9766 65C78.0182 63.9583 78.5391 62.4219 78.5391 60.3906V13.3203C78.5391 11.2891 78.0182 9.76562 76.9766 8.75C75.9349 7.70833 74.4375 7.1875 72.4844 7.1875H38.5C37.0417 7.1875 35.7786 7.35677 34.7109 7.69531C33.6693 8.03385 32.6406 8.72396 31.625 9.76562L8.77344 33.4766C7.6276 34.7266 7.05469 35.8333 7.05469 36.7969C7.05469 37.2917 7.17188 37.7995 7.40625 38.3203C7.66667 38.8151 8.1224 39.401 8.77344 40.0781L31.6641 63.7109C32.6797 64.7526 33.7083 65.4818 34.75 65.8984C35.7917 66.3151 37.0547 66.5234 38.5391 66.5234H72.4844ZM36.3516 53.3594C35.4922 53.3594 34.75 53.0469 34.125 52.4219C33.526 51.7969 33.2266 51.0547 33.2266 50.1953C33.2266 49.3359 33.5391 48.6068 34.1641 48.0078L45.2578 36.875L34.1641 25.7422C33.5391 25.1432 33.2266 24.4141 33.2266 23.5547C33.2266 22.6953 33.526 21.9661 34.125 21.3672C34.75 20.7682 35.4922 20.4688 36.3516 20.4688C37.237 20.4688 37.9661 20.7812 38.5391 21.4062L49.6719 32.5L60.9219 21.3672C61.5469 20.7161 62.263 20.3906 63.0703 20.3906C63.9297 20.3906 64.6589 20.7031 65.2578 21.3281C65.8828 21.9271 66.1953 22.6562 66.1953 23.5156C66.1953 24.349 65.8828 25.0781 65.2578 25.7031L54.125 36.875L65.2188 47.9688C65.8438 48.5938 66.1562 49.3359 66.1562 50.1953C66.1562 51.0547 65.8438 51.7969 65.2188 52.4219C64.6198 53.0469 63.8906 53.3594 63.0312 53.3594C62.1719 53.3594 61.4297 53.0339 60.8047 52.3828L49.6719 41.2891L38.6172 52.3828C38.0182 53.0339 37.263 53.3594 36.3516 53.3594Z" fill="black"/>
    </symbol>

    <symbol xmlns="http://www.w3.org/2000/svg" id="search" viewBox="0 0 179 180" fill="none">
        <path d="M0 72.8028C0 62.7674 1.88545 53.3705 5.65636 44.6123C9.42727 35.7932 14.6579 28.0385 21.3482 21.3482C28.0385 14.6579 35.7628 9.42727 44.521 5.65636C53.3401 1.88545 62.7674 0 72.8028 0C82.8383 0 92.2352 1.88545 100.993 5.65636C109.812 9.42727 117.567 14.6579 124.257 21.3482C130.948 28.0385 136.178 35.7932 139.949 44.6123C143.72 53.3705 145.606 62.7674 145.606 72.8028C145.606 81.1353 144.268 89.0421 141.591 96.5231C138.976 104.004 135.327 110.786 130.644 116.868L175.256 161.754C176.229 162.727 176.959 163.852 177.446 165.129C177.993 166.406 178.267 167.775 178.267 169.235C178.267 171.242 177.81 173.066 176.898 174.709C176.047 176.351 174.83 177.628 173.249 178.54C171.668 179.513 169.843 180 167.775 180C166.315 180 164.916 179.726 163.578 179.179C162.301 178.692 161.115 177.932 160.02 176.898L115.134 131.921C109.174 136.178 102.605 139.524 95.4283 141.956C88.2514 144.389 80.7096 145.606 72.8028 145.606C62.7674 145.606 53.3401 143.72 44.521 139.949C35.7628 136.178 28.0385 130.948 21.3482 124.257C14.6579 117.567 9.42727 109.843 5.65636 101.085C1.88545 92.2656 0 82.8383 0 72.8028ZM15.6006 72.8028C15.6006 80.7096 17.0603 88.1298 19.9797 95.0634C22.96 101.936 27.0654 107.988 32.296 113.218C37.5874 118.449 43.6695 122.554 50.5423 125.535C57.4759 128.515 64.8961 130.005 72.8028 130.005C80.7096 130.005 88.0993 128.515 94.9721 125.535C101.906 122.554 107.988 118.449 113.218 113.218C118.449 107.988 122.554 101.936 125.535 95.0634C128.515 88.1298 130.005 80.7096 130.005 72.8028C130.005 64.8961 128.515 57.5063 125.535 50.6336C122.554 43.6999 118.449 37.6178 113.218 32.3872C107.988 27.0958 101.906 22.9904 94.9721 20.071C88.0993 17.0907 80.7096 15.6006 72.8028 15.6006C64.8961 15.6006 57.4759 17.0907 50.5423 20.071C43.6695 22.9904 37.5874 27.0958 32.296 32.3872C27.0654 37.6178 22.96 43.6999 19.9797 50.6336C17.0603 57.5063 15.6006 64.8961 15.6006 72.8028Z" fill="#7700FF"/>
    </symbol>

    <symbol xmlns="http://www.w3.org/2000/svg" id="error" viewBox="0 0 199 180" fill="none">
        <path d="M25.8632 180C20.4947 180 15.8842 178.863 12.0316 176.589C8.17895 174.316 5.21053 171.221 3.12632 167.305C1.04211 163.453 0 159.126 0 154.326C0 149.716 1.23158 145.295 3.69474 141.063L77.2105 12.9789C79.6105 8.68421 82.8 5.46316 86.7789 3.31579C90.7579 1.10526 94.9263 0 99.2842 0C103.642 0 107.779 1.10526 111.695 3.31579C115.674 5.46316 118.895 8.68421 121.358 12.9789L194.874 141.063C196.074 143.147 196.989 145.326 197.621 147.6C198.253 149.874 198.568 152.116 198.568 154.326C198.568 159.126 197.526 163.453 195.442 167.305C193.358 171.221 190.389 174.316 186.537 176.589C182.684 178.863 178.074 180 172.705 180H25.8632ZM25.9579 165.126H172.516C175.8 165.126 178.389 164.021 180.284 161.811C182.242 159.663 183.221 157.137 183.221 154.232C183.221 152.211 182.716 150.221 181.705 148.263L108.284 20.1789C107.274 18.4105 105.947 17.1474 104.305 16.3895C102.726 15.5684 101.053 15.1579 99.2842 15.1579C97.5158 15.1579 95.8105 15.5684 94.1684 16.3895C92.5263 17.1474 91.2 18.4105 90.1895 20.1789L16.7684 148.168C16.2632 149.179 15.8842 150.221 15.6316 151.295C15.4421 152.368 15.3474 153.347 15.3474 154.232C15.3474 157.137 16.2947 159.663 18.1895 161.811C20.0842 164.021 22.6737 165.126 25.9579 165.126ZM99.2842 116.053C94.4211 116.053 91.9263 113.558 91.8 108.568L90.5684 58.4526C90.5053 56.0526 91.2632 54.0632 92.8421 52.4842C94.4842 50.9053 96.6 50.1158 99.1895 50.1158C101.716 50.1158 103.8 50.9368 105.442 52.5789C107.147 54.1579 107.968 56.1474 107.905 58.5474L106.484 108.568C106.421 113.558 104.021 116.053 99.2842 116.053ZM99.2842 146.842C96.5053 146.842 94.1053 145.895 92.0842 144C90.0632 142.042 89.0526 139.705 89.0526 136.989C89.0526 134.274 90.0632 131.968 92.0842 130.074C94.1053 128.116 96.5053 127.137 99.2842 127.137C102.063 127.137 104.463 128.084 106.484 129.979C108.505 131.874 109.516 134.211 109.516 136.989C109.516 139.768 108.474 142.105 106.389 144C104.368 145.895 102 146.842 99.2842 146.842Z" fill="#F40A0A"/>
    </symbol>

    <symbol xmlns="http://www.w3.org/2000/svg" id="help" height="34" viewBox="0 0 34 34" fill="none">
        <path d="M17.2969 33.2344C8.25 33.2344 0.796875 25.7812 0.796875 16.7188C0.796875 7.67188 8.23438 0.21875 17.2969 0.21875C26.3438 0.21875 33.7969 7.67188 33.7969 16.7188C33.7969 25.7812 26.3594 33.2344 17.2969 33.2344ZM17.2969 29.125C24.1719 29.125 29.6875 23.5938 29.6875 16.7188C29.6875 9.85938 24.1562 4.32812 17.2969 4.32812C10.4219 4.32812 4.92188 9.85938 4.92188 16.7188C4.92188 23.5938 10.4375 29.125 17.2969 29.125ZM16.9062 19.625C15.6875 19.625 15.0156 19.1094 15.0156 18.1094V17.9844C15.0156 16.7656 15.7656 16 16.8594 15.25C18.1094 14.375 18.7656 13.9531 18.7656 13.0781C18.7656 12.2656 18.0625 11.625 17.0625 11.625C16.3125 11.625 15.7031 11.9531 15.2031 12.7031L15.0156 12.9375C14.6719 13.4062 14.2031 13.6406 13.5625 13.6406C12.7188 13.6406 12.0781 13.0156 12.0781 12.1719C12.0781 11.8438 12.1406 11.5625 12.25 11.2656C12.8438 9.76562 14.7344 8.625 17.4062 8.625C20.375 8.625 22.7656 10.2656 22.7656 12.875C22.7656 14.5938 21.9219 15.4688 20.3281 16.4844C19.4375 17.0625 18.8125 17.5625 18.7031 18.2656C18.6875 18.3125 18.6719 18.3906 18.6719 18.4375C18.5625 19.125 17.875 19.625 16.9062 19.625ZM16.8906 24.6406C15.7188 24.6406 14.7969 23.8906 14.7969 22.7656C14.7969 21.6406 15.7188 20.8906 16.8906 20.8906C18.0625 20.8906 18.9688 21.6406 18.9688 22.7656C18.9688 23.8906 18.0625 24.6406 16.8906 24.6406Z" fill="#8D1BFF"/>
    </symbol>

    <symbol xmlns="http://www.w3.org/2000/svg" id="finish" viewBox="0 0 34 33" fill="none">
        <path d="M16.5 33C14.2396 33 12.1146 32.5677 10.125 31.7031C8.13542 30.849 6.38021 29.6615 4.85938 28.1406C3.33854 26.6302 2.14583 24.8802 1.28125 22.8906C0.427083 20.901 0 18.7708 0 16.5C0 14.2396 0.427083 12.1146 1.28125 10.125C2.14583 8.13542 3.33333 6.38021 4.84375 4.85938C6.36458 3.33854 8.11979 2.15104 10.1094 1.29688C12.1094 0.432292 14.2396 0 16.5 0C18.7604 0 20.8854 0.432292 22.875 1.29688C24.875 2.15104 26.6302 3.33854 28.1406 4.85938C29.6615 6.38021 30.8542 8.13542 31.7188 10.125C32.5833 12.1146 33.0156 14.2396 33.0156 16.5C33.0156 18.7708 32.5833 20.901 31.7188 22.8906C30.8542 24.8802 29.6615 26.6302 28.1406 28.1406C26.6302 29.6615 24.8802 30.849 22.8906 31.7031C20.901 32.5677 18.7708 33 16.5 33ZM16.5 28.8906C18.2188 28.8906 19.8281 28.5677 21.3281 27.9219C22.8281 27.2865 24.1458 26.4062 25.2812 25.2812C26.4167 24.1458 27.3021 22.8281 27.9375 21.3281C28.5833 19.8281 28.9062 18.2188 28.9062 16.5C28.9062 14.7812 28.5833 13.1771 27.9375 11.6875C27.2917 10.1875 26.401 8.86979 25.2656 7.73438C24.1406 6.59896 22.8281 5.71354 21.3281 5.07812C19.8281 4.43229 18.2188 4.10938 16.5 4.10938C14.7812 4.10938 13.1719 4.43229 11.6719 5.07812C10.1823 5.71354 8.86979 6.59896 7.73438 7.73438C6.59896 8.86979 5.71354 10.1875 5.07812 11.6875C4.44271 13.1771 4.125 14.7812 4.125 16.5C4.125 18.2188 4.44271 19.8281 5.07812 21.3281C5.71354 22.8281 6.59896 24.1458 7.73438 25.2812C8.86979 26.4062 10.1875 27.2865 11.6875 27.9219C13.1875 28.5677 14.7917 28.8906 16.5 28.8906ZM12.125 23.6406C11.6354 23.6406 11.2292 23.4948 10.9062 23.2031C10.5938 22.901 10.4375 22.5208 10.4375 22.0625C10.4375 21.6354 10.599 21.2031 10.9219 20.7656L14.1719 16.3906L11.0469 12.1875C10.7031 11.7292 10.5312 11.2812 10.5312 10.8438C10.5312 10.375 10.6927 9.98958 11.0156 9.6875C11.349 9.375 11.7604 9.21875 12.25 9.21875C12.6354 9.21875 12.9531 9.30208 13.2031 9.46875C13.4531 9.625 13.7188 9.92188 14 10.3594L16.5312 14.1406H16.6562L19.0938 10.3594C19.3542 9.93229 19.6094 9.63542 19.8594 9.46875C20.1198 9.30208 20.4375 9.21875 20.8125 9.21875C21.3125 9.21875 21.7188 9.36979 22.0312 9.67188C22.3542 9.97396 22.5156 10.3542 22.5156 10.8125C22.5156 11.2292 22.349 11.6615 22.0156 12.1094L18.7812 16.4375L22 20.7344C22.3333 21.1719 22.5 21.6042 22.5 22.0312C22.5 22.5104 22.3385 22.901 22.0156 23.2031C21.6927 23.4948 21.276 23.6406 20.7656 23.6406C20.3906 23.6406 20.0729 23.5573 19.8125 23.3906C19.5625 23.224 19.3021 22.9271 19.0312 22.5L16.5312 18.7031H16.4219L13.875 22.5C13.5833 22.9375 13.3125 23.2396 13.0625 23.4062C12.8125 23.5625 12.5 23.6406 12.125 23.6406Z" fill="#F40A0A"/>
    </symbol>
</svg>
